<svg version="1.1" id="Layer_1" xmlns="http://www.w3.org/2000/svg" xmlns:xlink="http://www.w3.org/1999/xlink" x="0px" y="0px"
	 width="100%" viewBox="0 0 500 500" enable-background="new 0 0 500 500" xml:space="preserve">
<path fill="#000000" opacity="1.000000" stroke="none" 
	d="
M344.000000,501.000000 
	C229.333359,501.000000 115.166718,501.000000 1.000061,501.000000 
	C1.000041,334.333405 1.000041,167.666794 1.000020,1.000151 
	C167.666565,1.000100 334.333130,1.000100 500.999756,1.000050 
	C500.999847,167.666519 500.999847,334.333038 500.999939,500.999786 
	C448.833344,501.000000 396.666656,501.000000 344.000000,501.000000 
M398.006073,209.994125 
	C398.339142,199.889908 398.611267,189.782837 399.083649,179.685135 
	C399.141632,178.445938 400.008881,176.983383 400.944397,176.087021 
	C409.863892,167.541153 419.054352,159.270172 427.777771,150.531708 
	C431.122314,147.181335 433.463470,142.829300 436.261841,138.933701 
	C431.379456,139.512573 427.311188,141.016479 423.194824,142.374786 
	C418.857239,143.806091 414.516388,145.263794 410.097778,146.402649 
	C406.035309,147.449707 401.867554,148.088150 397.746185,148.906601 
	C411.616119,138.287552 421.542450,125.467422 425.900177,109.473167 
	C412.837524,114.359070 399.790405,119.160927 386.809021,124.134415 
	C381.841003,126.037781 378.352081,125.477554 373.742279,121.762199 
	C366.435242,115.872963 358.156250,110.349434 349.376007,107.288498 
	C324.635223,98.663445 300.816711,101.363037 279.146912,116.977554 
	C258.935120,131.541534 248.960800,151.612915 248.087189,176.267838 
	C247.869186,182.420273 248.726730,188.610825 249.085373,194.706589 
	C186.788559,190.168396 135.907104,163.463318 95.629211,116.016258 
	C78.219673,145.655380 80.977097,187.378845 114.853241,215.594620 
	C114.725456,216.051407 114.597679,216.508194 114.469894,216.964981 
	C104.683510,214.060471 94.897118,211.155960 85.152199,208.263748 
	C83.808167,222.489761 88.103088,235.490540 95.315971,247.529694 
	C105.786438,265.006195 121.178909,276.319702 140.966263,281.699371 
	C140.886917,282.140533 140.807587,282.581665 140.728241,283.022797 
	C130.896469,283.022797 121.064697,283.022797 110.384773,283.022797 
	C122.451599,315.291260 145.327362,332.296570 179.317963,336.285095 
	C146.312286,360.380493 110.455757,370.270233 70.604965,366.713989 
	C102.759903,387.298187 137.483749,399.394531 175.982742,400.954956 
	C176.232010,407.608429 176.481262,414.261902 176.782837,422.311462 
	C193.025497,420.100891 208.125351,418.349121 223.117874,415.931641 
	C243.669098,412.617828 263.443359,406.381989 282.380035,397.821381 
	C313.117889,383.925934 339.470428,364.155212 361.341705,338.306610 
	C373.305298,324.167419 383.281616,308.769989 391.676239,292.422272 
	C400.485382,275.267212 407.038818,257.114410 411.800781,238.390335 
	C413.478577,231.793350 414.833923,225.091293 415.862091,218.364716 
	C416.219452,216.026642 417.544434,212.303772 412.761932,211.993332 
	C407.847778,211.674377 402.940643,211.247833 398.006073,209.994125 
z"/>
<path fill="#4343BF" opacity="1.000000" stroke="none" 
	d="
M175.862213,400.027100 
	C137.483749,399.394531 102.759903,387.298187 70.604965,366.713989 
	C110.455757,370.270233 146.312286,360.380493 179.317963,336.285095 
	C145.327362,332.296570 122.451599,315.291260 110.384773,283.022797 
	C121.064697,283.022797 130.896469,283.022797 140.728241,283.022797 
	C140.807587,282.581665 140.886917,282.140533 140.966263,281.699371 
	C121.178909,276.319702 105.786438,265.006195 95.315971,247.529694 
	C88.103088,235.490540 83.808167,222.489761 85.152199,208.263748 
	C94.897118,211.155960 104.683510,214.060471 114.469894,216.964981 
	C114.597679,216.508194 114.725456,216.051407 114.853241,215.594620 
	C80.977097,187.378845 78.219673,145.655380 95.629211,116.016258 
	C135.907104,163.463318 186.788559,190.168396 249.085373,194.706589 
	C248.726730,188.610825 247.869186,182.420273 248.087189,176.267838 
	C248.960800,151.612915 258.935120,131.541534 279.146912,116.977554 
	C300.816711,101.363037 324.635223,98.663445 349.376007,107.288498 
	C358.156250,110.349434 366.435242,115.872963 373.742279,121.762199 
	C378.352081,125.477554 381.841003,126.037781 386.809021,124.134415 
	C399.790405,119.160927 412.837524,114.359070 425.900177,109.473167 
	C421.542450,125.467422 411.616119,138.287552 397.746185,148.906601 
	C401.867554,148.088150 406.035309,147.449707 410.097778,146.402649 
	C414.516388,145.263794 418.857239,143.806091 423.194824,142.374786 
	C427.311188,141.016479 431.379456,139.512573 436.261841,138.933701 
	C433.463470,142.829300 431.122314,147.181335 427.777771,150.531708 
	C419.054352,159.270172 409.863892,167.541153 400.944397,176.087021 
	C400.008881,176.983383 399.141632,178.445938 399.083649,179.685135 
	C398.611267,189.782837 398.339142,199.889908 397.562897,210.531296 
	C387.136749,210.318283 377.153778,209.568115 367.231018,208.422729 
	C367.449280,197.587006 368.359955,187.087143 367.542786,176.723495 
	C366.802429,167.333572 365.085449,157.684006 358.996643,149.908493 
	C343.834869,130.546616 314.341125,127.433876 295.419952,143.023880 
	C280.852295,155.026825 276.321167,170.640472 279.798401,188.715988 
	C281.904724,199.665314 284.662964,210.495163 287.346588,221.324600 
	C288.418579,225.650452 287.023926,227.205414 282.722198,226.957031 
	C269.098541,226.170425 255.436813,225.859573 241.847900,224.689972 
	C205.136383,221.530197 170.698883,210.899246 138.786255,192.329575 
	C137.650528,191.668716 136.370743,191.255432 135.158096,190.726761 
	C134.968826,191.050262 134.779541,191.373779 134.590256,191.697281 
	C148.050323,204.555771 161.510391,217.414261 175.810196,231.074951 
	C162.708817,236.750793 151.047287,241.802872 138.297440,247.326416 
	C161.180084,257.011993 182.846802,266.182892 205.834122,275.912750 
	C195.503433,285.845581 186.130081,294.858002 176.133453,304.469666 
	C178.730560,305.614838 180.447998,306.498230 182.250107,307.146118 
	C193.220490,311.089905 204.215210,314.966034 215.191162,318.894409 
	C220.525375,320.803497 220.781921,321.515167 217.365448,326.175262 
	C206.637527,340.808136 195.843887,355.392822 184.677750,370.106567 
	C183.294678,370.372620 182.314240,370.572662 181.323685,370.676727 
	C174.857437,371.356262 174.833466,371.350220 175.057831,378.112488 
	C175.300232,385.418213 175.591980,392.722290 175.862213,400.027100 
M132.038910,189.029694 
	C132.038910,189.029694 131.967163,189.022369 131.953354,188.964966 
	C131.953354,188.964966 132.017563,188.970627 132.038910,189.029694 
z"/>
<path fill="#3ABCF8" opacity="1.000000" stroke="none" 
	d="
M175.922485,400.491028 
	C175.591980,392.722290 175.300232,385.418213 175.057831,378.112488 
	C174.833466,371.350220 174.857437,371.356262 181.323685,370.676727 
	C182.314240,370.572662 183.294678,370.372620 185.115784,370.138672 
	C192.228119,369.367950 198.538589,368.898773 204.775162,367.945923 
	C238.182510,362.841736 269.344452,351.901031 296.352203,331.070709 
	C334.368927,301.749451 355.698669,262.325653 365.027679,215.816589 
	C365.505157,213.436172 366.445801,211.148682 367.170807,208.817932 
	C377.153778,209.568115 387.136749,210.318283 397.575073,210.968414 
	C402.940643,211.247833 407.847778,211.674377 412.761932,211.993332 
	C417.544434,212.303772 416.219452,216.026642 415.862091,218.364716 
	C414.833923,225.091293 413.478577,231.793350 411.800781,238.390335 
	C407.038818,257.114410 400.485382,275.267212 391.676239,292.422272 
	C383.281616,308.769989 373.305298,324.167419 361.341705,338.306610 
	C339.470428,364.155212 313.117889,383.925934 282.380035,397.821381 
	C263.443359,406.381989 243.669098,412.617828 223.117874,415.931641 
	C208.125351,418.349121 193.025497,420.100891 176.782837,422.311462 
	C176.481262,414.261902 176.232010,407.608429 175.922485,400.491028 
z"/>
<path fill="#4B4DFF" opacity="1.000000" stroke="none" 
	d="
M367.231018,208.422729 
	C366.445801,211.148682 365.505157,213.436172 365.027679,215.816589 
	C355.698669,262.325653 334.368927,301.749451 296.352203,331.070709 
	C269.344452,351.901031 238.182510,362.841736 204.775162,367.945923 
	C198.538589,368.898773 192.228119,369.367950 185.513733,370.028259 
	C195.843887,355.392822 206.637527,340.808136 217.365448,326.175262 
	C220.781921,321.515167 220.525375,320.803497 215.191162,318.894409 
	C204.215210,314.966034 193.220490,311.089905 182.250107,307.146118 
	C180.447998,306.498230 178.730560,305.614838 176.133453,304.469666 
	C186.130081,294.858002 195.503433,285.845581 205.834122,275.912750 
	C182.846802,266.182892 161.180084,257.011993 138.297440,247.326416 
	C151.047287,241.802872 162.708817,236.750793 175.810196,231.074951 
	C161.510391,217.414261 148.050323,204.555771 134.590256,191.697281 
	C134.779541,191.373779 134.968826,191.050262 135.158096,190.726761 
	C136.370743,191.255432 137.650528,191.668716 138.786255,192.329575 
	C170.698883,210.899246 205.136383,221.530197 241.847900,224.689972 
	C255.436813,225.859573 269.098541,226.170425 282.722198,226.957031 
	C287.023926,227.205414 288.418579,225.650452 287.346588,221.324600 
	C284.662964,210.495163 281.904724,199.665314 279.798401,188.715988 
	C276.321167,170.640472 280.852295,155.026825 295.419952,143.023880 
	C314.341125,127.433876 343.834869,130.546616 358.996643,149.908493 
	C365.085449,157.684006 366.802429,167.333572 367.542786,176.723495 
	C368.359955,187.087143 367.449280,197.587006 367.231018,208.422729 
M334.727814,178.906097 
	C336.952271,173.840576 336.303467,169.125671 332.593445,165.069473 
	C329.327301,161.498596 325.139191,160.211731 320.389618,161.448288 
	C315.006104,162.849884 311.261658,167.557098 311.031067,172.978256 
	C310.791321,178.614288 314.332855,183.573578 319.882477,185.373077 
	C325.318390,187.135696 330.253235,185.149094 334.727814,178.906097 
z"/>
<path fill="#4B4DFF" opacity="1.000000" stroke="none" 
	d="
M132.017563,188.970627 
	C132.017563,188.970627 131.953354,188.964966 131.973160,188.981018 
	C131.992966,188.997055 132.017563,188.970627 132.017563,188.970627 
z"/>
<path fill="#4B4DFF" opacity="1.000000" stroke="none" 
	d="
M131.980072,189.009705 
	C131.967163,189.022369 132.038910,189.029694 132.028229,189.000153 
	C132.017563,188.970627 131.992966,188.997055 131.980072,189.009705 
z"/>
<path fill="#EAF4F5" opacity="1.000000" stroke="none" 
	d="
M334.524597,179.233276 
	C330.253235,185.149094 325.318390,187.135696 319.882477,185.373077 
	C314.332855,183.573578 310.791321,178.614288 311.031067,172.978256 
	C311.261658,167.557098 315.006104,162.849884 320.389618,161.448288 
	C325.139191,160.211731 329.327301,161.498596 332.593445,165.069473 
	C336.303467,169.125671 336.952271,173.840576 334.524597,179.233276 
z"/>
</svg>